<svg xmlns="http://www.w3.org/2000/svg" viewBox="514 335 100.001 100"><defs><style>.a{fill:#b6b6b6;}</style></defs><g transform="translate(514.001 335)"><path class="a" d="M57.861,19.475A9.949,9.949,0,0,0,50,23.433a9.954,9.954,0,0,0-7.861-3.957A10.344,10.344,0,0,0,31.577,30.037c0,4.158,1.137,7.088,8.183,14.477,5.638,5.911,7.482,9.469,7.777,10.082a3.131,3.131,0,0,0,.75,1.269l0,0a2.6,2.6,0,0,0,.213.18,2.319,2.319,0,0,0,.82.4,2.5,2.5,0,0,0,.685.1h0A2.509,2.509,0,0,0,52.462,54.6c.294-.611,2.133-4.162,7.777-10.081,7.047-7.389,8.184-10.319,8.184-14.477A10.343,10.343,0,0,0,57.861,19.475Zm-1.24,21.588A68.231,68.231,0,0,0,50,49.03a68.29,68.29,0,0,0-6.622-7.968c-6.8-7.131-6.8-8.936-6.8-11.025,0-.056.063-5.561,5.562-5.561,3.276,0,4.966,3.336,5.541,4.77a2.5,2.5,0,0,0,4.641,0c.575-1.435,2.266-4.771,5.541-4.771,5.5,0,5.563,5.506,5.563,5.562C63.424,32.126,63.424,33.93,56.621,41.063Z"/><circle class="a" cx="2.5" cy="2.5" r="2.5" transform="translate(29.464 7.85)"/><circle class="a" cx="2.5" cy="2.5" r="2.5" transform="translate(65.537 63.174)"/><path class="a" d="M98.195,27.489,77.924,21.618V2.5a2.5,2.5,0,0,0-2.5-2.5H24.576a2.5,2.5,0,0,0-2.5,2.5V21.712L1.8,27.584A2.5,2.5,0,0,0,.1,30.681L19.652,98.194a2.5,2.5,0,0,0,2.4,1.806,2.471,2.471,0,0,0,.7-.1l27.417-7.94,27.086,7.846a2.5,2.5,0,0,0,3.1-1.706L99.9,30.586A2.5,2.5,0,0,0,98.195,27.489ZM27.076,5H72.924V71.023H27.076ZM23.76,94.4,5.6,31.691l16.479-4.773v46.6a2.5,2.5,0,0,0,2.5,2.5h4.571l-1.936,6.686a2.5,2.5,0,0,0,1.706,3.1l12.262,3.552Zm52.481-.094L32.709,81.7l1.644-5.675H75.424a2.5,2.5,0,0,0,2.5-2.5v-46.7L94.4,31.6Z"/><circle class="a" cx="2.484" cy="2.484" r="2.484" transform="translate(70.698 85.538)"/><circle class="a" cx="2.485" cy="2.485" r="2.485" transform="translate(9.324 32.123)"/></g></svg>